# xmcd
#
# Track frame offsets: 
#        150
#        24700
#        44244
#        64180
#        79176
#        95577
#        116891
#        134133
#        145121
#        159178
#        173854
#        188444
#        205145
#        219606
#        238569
#        254022
#        270390
#        289446
#
# Disc length: 4158 seconds
#
# Revision: 0
# Processed by: cddbd v1.5.1PL0 Copyright (c) Steve Scherf et al.
# Submitted via: ExactAudioCopy v0.95b1
#
DISCID=1a103c12
DTITLE=Cohesio'n - Exitos Por Siempre
DYEAR=1900
DGENRE=Other
TTITLE0=Ayer
TTITLE1=Hay Amores
TTITLE2=Hasta Siempre
TTITLE3=Quiza's, Quiza's, Quiza's
TTITLE4=El Bodeguero
TTITLE5=Yolanda
TTITLE6=Son De La Loma
TTITLE7=Dos Gardenias
TTITLE8=Yo Soy El Punto Cubano
TTITLE9=Besame Mucho
TTITLE10=Chan - Chan
TTITLE11=Perfitida
TTITLE12=La Chica De Ipanema
TTITLE13=La Paloma
TTITLE14=Guantanamera
TTITLE15=A Puro Dolor
TTITLE16=Fruta Fresca
TTITLE17=El Carnaval
EXTD=
EXTT0=
EXTT1=
EXTT2=
EXTT3=
EXTT4=
EXTT5=
EXTT6=
EXTT7=
EXTT8=
EXTT9=
EXTT10=
EXTT11=
EXTT12=
EXTT13=
EXTT14=
EXTT15=
EXTT16=
EXTT17=
PLAYORDER=
